<svg xmlns="http://www.w3.org/2000/svg" width="128" height="128" viewBox="0 0 33.867 33.867"><path d="m 20.000732,272.25979 10.136811,4.66857 -0.117554,19.48537 -10.019257,0.0474 z" fill="#fff" transform="translate(0 -263.133)"/><path fill="#fff" d="M10.781 264.063H20.03V296.461H10.781z" transform="translate(0 -263.133)"/><path fill="#fff" d="M5.324 275.77H15.404V296.414H5.324z" transform="translate(0 -263.133)"/><path d="M22.834794 279.8448c.28224 0 .470405-.18792.470405-.47061v-.79908c0-.28269-.188165-.47062-.470405-.47062-.28224 0-.470373.18793-.470373.47062v.79908c0 .28269.235194.47061.470373.47061zM25.092655 279.8448c.28224 0 .470405-.18792.470405-.47061v-.79908c0-.28269-.188165-.47062-.470405-.47062-.28224 0-.470374.18793-.470374.47062v.79908c0 .28269.18815.47061.470374.47061zM27.303473 279.8448c.282241 0 .470406-.18792.470406-.47061v-.79908c0-.28269-.188165-.47062-.470406-.47062-.28224 0-.470373.18793-.470373.47062v.79908c0 .28269.235195.47061.470373.47061zM22.834794 283.13741c.28224 0 .470405-.18792.470405-.47061v-.79988c0-.28269-.188165-.47062-.470405-.47062-.28224 0-.470373.18793-.470373.47062v.79988c0 .28269.235194.47061.470373.47061zM25.092655 283.13741c.28224 0 .470405-.18792.470405-.47061v-.79988c0-.28269-.188165-.47062-.470405-.47062-.28224 0-.470374.18793-.470374.47062v.79988c0 .28269.18815.47061.470374.47061zM27.303473 283.13741c.282241 0 .470406-.18792.470406-.47061v-.79988c0-.28269-.188165-.47062-.470406-.47062-.28224 0-.470373.18793-.470373.47062v.79988c0 .28269.235195.47061.470373.47061zM22.834794 286.43011c.28224 0 .470405-.18793.470405-.47062v-.79908c0-.28269-.188165-.47061-.470405-.47061-.28224 0-.470373.18792-.470373.47061v.79908c0 .23531.235194.47062.470373.47062zM25.092655 286.43011c.28224 0 .470405-.18793.470405-.47062v-.79908c0-.28269-.188165-.47061-.470405-.47061-.28224 0-.470374.18792-.470374.47061v.79908c0 .23531.18815.47062.470374.47062zM27.303473 286.43011c.282241 0 .470406-.18793.470406-.47062v-.79908c0-.28269-.188165-.47061-.470406-.47061-.28224 0-.470373.18792-.470373.47061v.79908c0 .23531.235195.47062.470373.47062zM22.834794 289.67582c.28224 0 .470405-.18792.470405-.47061v-.79908c0-.28269-.188165-.47062-.470405-.47062-.28224 0-.470373.18793-.470373.47062v.79908c0 .28269.235194.47061.470373.47061zM25.092655 289.67582c.28224 0 .470405-.18792.470405-.47061v-.79908c0-.28269-.188165-.47062-.470405-.47062-.28224 0-.470374.18793-.470374.47062v.79908c0 .28269.18815.47061.470374.47061zM27.303473 289.67582c.282241 0 .470406-.18792.470406-.47061v-.79908c0-.28269-.188165-.47062-.470406-.47062-.28224 0-.470373.18793-.470373.47062v.79908c0 .28269.235195.47061.470373.47061zM22.834794 292.96843c.28224 0 .470405-.18792.470405-.47061v-.79988c0-.28269-.188165-.47062-.470405-.47062-.28224 0-.470373.18793-.470373.47062v.79988c0 .23531.235194.47061.470373.47061zM25.092655 292.96843c.28224 0 .470405-.18792.470405-.47061v-.79988c0-.28269-.188165-.47062-.470405-.47062-.28224 0-.470374.18793-.470374.47062v.79988c0 .23531.18815.47061.470374.47061zM27.303473 292.96843c.282241 0 .470406-.18792.470406-.47061v-.79988c0-.28269-.188165-.47062-.470406-.47062-.28224 0-.470373.18793-.470373.47062v.79988c0 .23531.235195.47061.470373.47061zM8.2527825 278.10425c-.2822368 0-.4703894.18793-.4703894.47062v.79988c0 .28269.1881534.47061.4703894.47061.28224 0 .4703894-.18792.4703894-.47061v-.79988c0-.23531-.1881574-.47062-.4703894-.47062zM10.510643 278.10425c-.28224 0-.47039.18793-.47039.47062v.79988c0 .28269.188158.47061.47039.47061.282232 0 .470389-.18792.470389-.47061v-.79988c0-.23531-.235195-.47062-.470389-.47062zM12.768502 278.10425c-.282232 0-.470389.18793-.470389.47062v.79988c0 .28269.188149.47061.470389.47061.282241 0 .47039-.18792.47039-.47061v-.79988c0-.23531-.235195-.47062-.47039-.47062zM8.2527825 281.39703c-.2822368 0-.4703894.18792-.4703894.47061v.79908c0 .28269.1881534.47061.4703894.47061.28224 0 .4703894-.18792.4703894-.47061v-.79908c0-.28269-.1881574-.47061-.4703894-.47061zM10.510643 281.39703c-.28224 0-.47039.18792-.47039.47061v.79908c0 .28269.188158.47061.47039.47061.282232 0 .470389-.18792.470389-.47061v-.79908c0-.28269-.235195-.47061-.470389-.47061zM12.768502 281.39703c-.282232 0-.470389.18792-.470389.47061v.79908c0 .28269.188149.47061.470389.47061.282241 0 .47039-.18792.47039-.47061v-.79908c0-.28269-.235195-.47061-.47039-.47061zM8.2527825 284.68964c-.2822368 0-.4703894.18792-.4703894.47061v.79908c0 .28269.1881534.47062.4703894.47062.28224 0 .4703894-.18793.4703894-.47062v-.79908c0-.28269-.1881574-.47061-.4703894-.47061zM10.510643 284.68964c-.28224 0-.47039.18792-.47039.47061v.79908c0 .28269.188158.47062.47039.47062.282232 0 .470389-.18793.470389-.47062v-.79908c0-.28269-.235195-.47061-.470389-.47061zM12.768502 284.68964c-.282232 0-.470389.18792-.470389.47061v.79908c0 .28269.188149.47062.470389.47062.282241 0 .47039-.18793.47039-.47062v-.79908c0-.28269-.235195-.47061-.47039-.47061zM8.2527825 287.93543c-.2822368 0-.4703894.18793-.4703894.47062v.79988c0 .28269.1881534.47061.4703894.47061.28224 0 .4703894-.18792.4703894-.47061v-.79988c0-.23531-.1881574-.47062-.4703894-.47062zM10.510643 287.93543c-.28224 0-.47039.18793-.47039.47062v.79988c0 .28269.188158.47061.47039.47061.282232 0 .470389-.18792.470389-.47061v-.79988c0-.23531-.235195-.47062-.470389-.47062zM12.768502 287.93543c-.282232 0-.470389.18793-.470389.47062v.79988c0 .28269.188149.47061.470389.47061.282241 0 .47039-.18792.47039-.47061v-.79988c0-.23531-.235195-.47062-.47039-.47062zM8.2527825 291.22804c-.2822368 0-.4703894.18793-.4703894.47062v.79908c0 .28269.1881534.47061.4703894.47061.28224 0 .4703894-.18792.4703894-.47061v-.79908c0-.28269-.1881574-.47062-.4703894-.47062zM10.510643 291.22804c-.28224 0-.47039.18793-.47039.47062v.79908c0 .28269.188158.47061.47039.47061.282232 0 .470389-.18792.470389-.47061v-.79908c0-.28269-.235195-.47062-.470389-.47062zM12.768502 291.22804c-.282232 0-.470389.18793-.470389.47062v.79908c0 .28269.188149.47061.470389.47061.282241 0 .47039-.18792.47039-.47061v-.79908c0-.28269-.235195-.47062-.47039-.47062z" transform="translate(0 -263.133)"/><path d="m 31.960319,296.82578 c 0.28224,0 0.470374,-0.18792 0.470374,-0.47061 0,-0.28269 -0.18815,-0.47061 -0.470374,-0.47061 h -1.411163 v -19.28587 c 0,-0.18793 -0.09408,-0.32927 -0.282232,-0.42243 l -9.878147,-4.46875 v -7.7143 c 0,-0.28269 -0.188149,-0.47061 -0.470389,-0.47061 h -9.078481 c -0.28224,0 -0.470389,0.18792 -0.470389,0.47061 V 275.3767 H 5.4774944 c -0.2822369,0 -0.4703894,0.18792 -0.4703894,0.47061 V 295.9329 H 3.2666714 c -0.2822368,0 -0.4703894,0.18793 -0.4703894,0.47062 0,0.28269 0.1881534,0.47061 0.4703894,0.47061 H 31.960319 Z m -2.351943,-19.89742 v 19.00358 H 20.529899 V 272.78896 Z M 11.310299,264.46294 h 8.137708 v 31.42194 h -3.48087 v -2.96343 h 1.92859 c 0.28224,0 0.47039,-0.18792 0.47039,-0.47061 0,-0.28269 -0.18815,-0.47062 -0.47039,-0.47062 h -1.92859 v -2.72827 h 1.92859 c 0.28224,0 0.47039,-0.18793 0.47039,-0.47062 0,-0.28269 -0.18815,-0.47061 -0.47039,-0.47061 h -1.92859 v -2.72828 h 1.92859 c 0.28224,0 0.47039,-0.18792 0.47039,-0.47061 0,-0.28269 -0.18815,-0.47062 -0.47039,-0.47062 h -1.92859 v -2.72812 h 1.92859 c 0.28224,0 0.47039,-0.18792 0.47039,-0.47061 0,-0.28269 -0.18815,-0.47061 -0.47039,-0.47061 h -1.92859 v -2.6813 h 1.92859 c 0.28224,0 0.47039,-0.18792 0.47039,-0.47061 0,-0.28269 -0.18815,-0.47062 -0.47039,-0.47062 h -1.92859 v -1.55238 c 0,-0.28269 -0.188157,-0.47062 -0.470389,-0.47062 h -4.186451 z m -5.3624178,11.8068 h 9.0784818 v 19.61514 H 5.9478812 Z" transform="translate(0 -263.133)"/><path d="M12.768502 267.33241h5.174263c.282232 0 .47039-.18793.47039-.47062 0-.28269-.18815-.47061-.47039-.47061h-5.174263c-.282232 0-.470389.18792-.470389.47061 0 .28269.188149.47062.470389.47062zM12.768502 270.95445h5.174263c.282232 0 .47039-.18793.47039-.47062 0-.28268-.18815-.47061-.47039-.47061h-5.174263c-.282232 0-.470389.18793-.470389.47061 0 .28269.188149.47062.470389.47062zM18.366114 274.15302c0-.28269-.188149-.47061-.470389-.47061H12.72146c-.28224 0-.47039.18792-.47039.47061 0 .28269.18815.47061.47039.47061h5.174265c.28224 0 .470389-.18792.470389-.47061z" transform="translate(0 -263.133)"/></svg>