<?xml version="1.0" standalone="no"?>
<!DOCTYPE svg PUBLIC "-//W3C//DTD SVG 20010904//EN"
 "http://www.w3.org/TR/2001/REC-SVG-20010904/DTD/svg10.dtd">
<svg version="1.0" xmlns="http://www.w3.org/2000/svg"
 width="700.000000pt" height="700.000000pt" viewBox="0 0 700.000000 700.000000"
 preserveAspectRatio="xMidYMid meet">
<metadata>
Created by potrace 1.11, written by Peter Selinger 2001-2013
</metadata>
<g transform="translate(0.000000,700.000000) scale(0.100000,-0.100000)"
fill="#000000" stroke="none">
<path d="M2189 6905 c-15 -8 -30 -22 -35 -32 -4 -10 -9 -551 -10 -1203 -1
-652 -3 -1188 -3 -1192 -1 -5 -230 -8 -510 -8 -319 0 -519 -4 -537 -10 -63
-22 -58 143 -59 -2145 l0 -2090 -203 -5 -204 -5 -24 -28 c-38 -44 -28 -123 18
-148 35 -19 5945 -20 6003 -1 50 16 75 45 75 86 -1 96 -22 106 -227 106 l-159
0 0 2010 0 2009 -21 23 c-32 33 121 -38 -1298 603 -402 181 -447 202 -515 233
-25 12 -94 43 -155 71 l-110 49 0 810 c-1 884 1 851 -58 872 -20 7 -344 10
-986 10 -809 -1 -960 -3 -982 -15z"/>
</g>
</svg>
