<?xml version="1.0" encoding="UTF-8" standalone="no"?>
<!-- Created with Inkscape (http://www.inkscape.org/) -->

<svg
   xmlns:dc="http://purl.org/dc/elements/1.1/"
   xmlns:cc="http://creativecommons.org/ns#"
   xmlns:rdf="http://www.w3.org/1999/02/22-rdf-syntax-ns#"
   xmlns:svg="http://www.w3.org/2000/svg"
   xmlns="http://www.w3.org/2000/svg"
   xmlns:sodipodi="http://sodipodi.sourceforge.net/DTD/sodipodi-0.dtd"
   xmlns:inkscape="http://www.inkscape.org/namespaces/inkscape"
   width="128"
   height="128"
   viewBox="0 0 33.866665 33.866666"
   version="1.1"
   id="svg949"
   inkscape:version="0.92.3 (2405546, 2018-03-11)"
   sodipodi:docname="favicon.svg">
  <defs
     id="defs943" />
  <sodipodi:namedview
     id="base"
     pagecolor="#ffffff"
     bordercolor="#666666"
     borderopacity="1.0"
     inkscape:pageopacity="0.0"
     inkscape:pageshadow="2"
     inkscape:zoom="2.8"
     inkscape:cx="-41.751243"
     inkscape:cy="96.62904"
     inkscape:document-units="mm"
     inkscape:current-layer="layer1"
     showgrid="false"
     units="px"
     inkscape:window-width="1920"
     inkscape:window-height="1052"
     inkscape:window-x="1920"
     inkscape:window-y="0"
     inkscape:window-maximized="1" />
  <metadata
     id="metadata946">
    <rdf:RDF>
      <cc:Work
         rdf:about="">
        <dc:format>image/svg+xml</dc:format>
        <dc:type
           rdf:resource="http://purl.org/dc/dcmitype/StillImage" />
        <dc:title />
      </cc:Work>
    </rdf:RDF>
  </metadata>
  <g
     inkscape:label="Layer 1"
     inkscape:groupmode="layer"
     id="layer1"
     transform="translate(0,-263.13334)">
    <path
       style="fill:#ffffff;fill-opacity:1;stroke:none;stroke-width:1.96123755;stroke-miterlimit:4;stroke-dasharray:none;stroke-opacity:1"
       d="m 20.000732,272.25979 10.136811,4.66857 -0.117554,19.48537 -10.019257,0.0474 z"
       id="rect846-3-6"
       inkscape:connector-curvature="0"
       sodipodi:nodetypes="ccccc" />
    <rect
       style="fill:#ffffff;fill-opacity:1;stroke:none;stroke-width:1.96123755;stroke-miterlimit:4;stroke-dasharray:none;stroke-opacity:1"
       id="rect846-3"
       width="9.2489996"
       height="32.398136"
       x="10.781133"
       y="264.06293" />
    <rect
       style="fill:#ffffff;fill-opacity:1;stroke:none;stroke-width:1.63436806;stroke-miterlimit:4;stroke-dasharray:none;stroke-opacity:1"
       id="rect846"
       width="10.08"
       height="20.643999"
       x="5.3242202"
       y="275.77005" />
    <path
       inkscape:connector-curvature="0"
       d="m 22.834794,279.8448 c 0.28224,0 0.470405,-0.18792 0.470405,-0.47061 v -0.79908 c 0,-0.28269 -0.188165,-0.47062 -0.470405,-0.47062 -0.28224,0 -0.470373,0.18793 -0.470373,0.47062 v 0.79908 c 0,0.28269 0.235194,0.47061 0.470373,0.47061 z"
       id="path4"
       style="stroke-width:0.47038752" />
    <path
       inkscape:connector-curvature="0"
       d="m 25.092655,279.8448 c 0.28224,0 0.470405,-0.18792 0.470405,-0.47061 v -0.79908 c 0,-0.28269 -0.188165,-0.47062 -0.470405,-0.47062 -0.28224,0 -0.470374,0.18793 -0.470374,0.47062 v 0.79908 c 0,0.28269 0.18815,0.47061 0.470374,0.47061 z"
       id="path6"
       style="stroke-width:0.47038752" />
    <path
       inkscape:connector-curvature="0"
       d="m 27.303473,279.8448 c 0.282241,0 0.470406,-0.18792 0.470406,-0.47061 v -0.79908 c 0,-0.28269 -0.188165,-0.47062 -0.470406,-0.47062 -0.28224,0 -0.470373,0.18793 -0.470373,0.47062 v 0.79908 c 0,0.28269 0.235195,0.47061 0.470373,0.47061 z"
       id="path8"
       style="stroke-width:0.47038752" />
    <path
       inkscape:connector-curvature="0"
       d="m 22.834794,283.13741 c 0.28224,0 0.470405,-0.18792 0.470405,-0.47061 v -0.79988 c 0,-0.28269 -0.188165,-0.47062 -0.470405,-0.47062 -0.28224,0 -0.470373,0.18793 -0.470373,0.47062 v 0.79988 c 0,0.28269 0.235194,0.47061 0.470373,0.47061 z"
       id="path10"
       style="stroke-width:0.47038752" />
    <path
       inkscape:connector-curvature="0"
       d="m 25.092655,283.13741 c 0.28224,0 0.470405,-0.18792 0.470405,-0.47061 v -0.79988 c 0,-0.28269 -0.188165,-0.47062 -0.470405,-0.47062 -0.28224,0 -0.470374,0.18793 -0.470374,0.47062 v 0.79988 c 0,0.28269 0.18815,0.47061 0.470374,0.47061 z"
       id="path12"
       style="stroke-width:0.47038752" />
    <path
       inkscape:connector-curvature="0"
       d="m 27.303473,283.13741 c 0.282241,0 0.470406,-0.18792 0.470406,-0.47061 v -0.79988 c 0,-0.28269 -0.188165,-0.47062 -0.470406,-0.47062 -0.28224,0 -0.470373,0.18793 -0.470373,0.47062 v 0.79988 c 0,0.28269 0.235195,0.47061 0.470373,0.47061 z"
       id="path14"
       style="stroke-width:0.47038752" />
    <path
       inkscape:connector-curvature="0"
       d="m 22.834794,286.43011 c 0.28224,0 0.470405,-0.18793 0.470405,-0.47062 v -0.79908 c 0,-0.28269 -0.188165,-0.47061 -0.470405,-0.47061 -0.28224,0 -0.470373,0.18792 -0.470373,0.47061 v 0.79908 c 0,0.23531 0.235194,0.47062 0.470373,0.47062 z"
       id="path16"
       style="stroke-width:0.47038752" />
    <path
       inkscape:connector-curvature="0"
       d="m 25.092655,286.43011 c 0.28224,0 0.470405,-0.18793 0.470405,-0.47062 v -0.79908 c 0,-0.28269 -0.188165,-0.47061 -0.470405,-0.47061 -0.28224,0 -0.470374,0.18792 -0.470374,0.47061 v 0.79908 c 0,0.23531 0.18815,0.47062 0.470374,0.47062 z"
       id="path18"
       style="stroke-width:0.47038752" />
    <path
       inkscape:connector-curvature="0"
       d="m 27.303473,286.43011 c 0.282241,0 0.470406,-0.18793 0.470406,-0.47062 v -0.79908 c 0,-0.28269 -0.188165,-0.47061 -0.470406,-0.47061 -0.28224,0 -0.470373,0.18792 -0.470373,0.47061 v 0.79908 c 0,0.23531 0.235195,0.47062 0.470373,0.47062 z"
       id="path20"
       style="stroke-width:0.47038752" />
    <path
       inkscape:connector-curvature="0"
       d="m 22.834794,289.67582 c 0.28224,0 0.470405,-0.18792 0.470405,-0.47061 v -0.79908 c 0,-0.28269 -0.188165,-0.47062 -0.470405,-0.47062 -0.28224,0 -0.470373,0.18793 -0.470373,0.47062 v 0.79908 c 0,0.28269 0.235194,0.47061 0.470373,0.47061 z"
       id="path22"
       style="stroke-width:0.47038752" />
    <path
       inkscape:connector-curvature="0"
       d="m 25.092655,289.67582 c 0.28224,0 0.470405,-0.18792 0.470405,-0.47061 v -0.79908 c 0,-0.28269 -0.188165,-0.47062 -0.470405,-0.47062 -0.28224,0 -0.470374,0.18793 -0.470374,0.47062 v 0.79908 c 0,0.28269 0.18815,0.47061 0.470374,0.47061 z"
       id="path24"
       style="stroke-width:0.47038752" />
    <path
       inkscape:connector-curvature="0"
       d="m 27.303473,289.67582 c 0.282241,0 0.470406,-0.18792 0.470406,-0.47061 v -0.79908 c 0,-0.28269 -0.188165,-0.47062 -0.470406,-0.47062 -0.28224,0 -0.470373,0.18793 -0.470373,0.47062 v 0.79908 c 0,0.28269 0.235195,0.47061 0.470373,0.47061 z"
       id="path26"
       style="stroke-width:0.47038752" />
    <path
       inkscape:connector-curvature="0"
       d="m 22.834794,292.96843 c 0.28224,0 0.470405,-0.18792 0.470405,-0.47061 v -0.79988 c 0,-0.28269 -0.188165,-0.47062 -0.470405,-0.47062 -0.28224,0 -0.470373,0.18793 -0.470373,0.47062 v 0.79988 c 0,0.23531 0.235194,0.47061 0.470373,0.47061 z"
       id="path28"
       style="stroke-width:0.47038752" />
    <path
       inkscape:connector-curvature="0"
       d="m 25.092655,292.96843 c 0.28224,0 0.470405,-0.18792 0.470405,-0.47061 v -0.79988 c 0,-0.28269 -0.188165,-0.47062 -0.470405,-0.47062 -0.28224,0 -0.470374,0.18793 -0.470374,0.47062 v 0.79988 c 0,0.23531 0.18815,0.47061 0.470374,0.47061 z"
       id="path30"
       style="stroke-width:0.47038752" />
    <path
       inkscape:connector-curvature="0"
       d="m 27.303473,292.96843 c 0.282241,0 0.470406,-0.18792 0.470406,-0.47061 v -0.79988 c 0,-0.28269 -0.188165,-0.47062 -0.470406,-0.47062 -0.28224,0 -0.470373,0.18793 -0.470373,0.47062 v 0.79988 c 0,0.23531 0.235195,0.47061 0.470373,0.47061 z"
       id="path32"
       style="stroke-width:0.47038752" />
    <path
       inkscape:connector-curvature="0"
       d="m 8.2527825,278.10425 c -0.2822368,0 -0.4703894,0.18793 -0.4703894,0.47062 v 0.79988 c 0,0.28269 0.1881534,0.47061 0.4703894,0.47061 0.28224,0 0.4703894,-0.18792 0.4703894,-0.47061 v -0.79988 c 0,-0.23531 -0.1881574,-0.47062 -0.4703894,-0.47062 z"
       id="path34"
       style="stroke-width:0.47038752" />
    <path
       inkscape:connector-curvature="0"
       d="m 10.510643,278.10425 c -0.28224,0 -0.47039,0.18793 -0.47039,0.47062 v 0.79988 c 0,0.28269 0.188158,0.47061 0.47039,0.47061 0.282232,0 0.470389,-0.18792 0.470389,-0.47061 v -0.79988 c 0,-0.23531 -0.235195,-0.47062 -0.470389,-0.47062 z"
       id="path36"
       style="stroke-width:0.47038752" />
    <path
       inkscape:connector-curvature="0"
       d="m 12.768502,278.10425 c -0.282232,0 -0.470389,0.18793 -0.470389,0.47062 v 0.79988 c 0,0.28269 0.188149,0.47061 0.470389,0.47061 0.282241,0 0.47039,-0.18792 0.47039,-0.47061 v -0.79988 c 0,-0.23531 -0.235195,-0.47062 -0.47039,-0.47062 z"
       id="path38"
       style="stroke-width:0.47038752" />
    <path
       inkscape:connector-curvature="0"
       d="m 8.2527825,281.39703 c -0.2822368,0 -0.4703894,0.18792 -0.4703894,0.47061 v 0.79908 c 0,0.28269 0.1881534,0.47061 0.4703894,0.47061 0.28224,0 0.4703894,-0.18792 0.4703894,-0.47061 v -0.79908 c 0,-0.28269 -0.1881574,-0.47061 -0.4703894,-0.47061 z"
       id="path40"
       style="stroke-width:0.47038752" />
    <path
       inkscape:connector-curvature="0"
       d="m 10.510643,281.39703 c -0.28224,0 -0.47039,0.18792 -0.47039,0.47061 v 0.79908 c 0,0.28269 0.188158,0.47061 0.47039,0.47061 0.282232,0 0.470389,-0.18792 0.470389,-0.47061 v -0.79908 c 0,-0.28269 -0.235195,-0.47061 -0.470389,-0.47061 z"
       id="path42"
       style="stroke-width:0.47038752" />
    <path
       inkscape:connector-curvature="0"
       d="m 12.768502,281.39703 c -0.282232,0 -0.470389,0.18792 -0.470389,0.47061 v 0.79908 c 0,0.28269 0.188149,0.47061 0.470389,0.47061 0.282241,0 0.47039,-0.18792 0.47039,-0.47061 v -0.79908 c 0,-0.28269 -0.235195,-0.47061 -0.47039,-0.47061 z"
       id="path44"
       style="stroke-width:0.47038752" />
    <path
       inkscape:connector-curvature="0"
       d="m 8.2527825,284.68964 c -0.2822368,0 -0.4703894,0.18792 -0.4703894,0.47061 v 0.79908 c 0,0.28269 0.1881534,0.47062 0.4703894,0.47062 0.28224,0 0.4703894,-0.18793 0.4703894,-0.47062 v -0.79908 c 0,-0.28269 -0.1881574,-0.47061 -0.4703894,-0.47061 z"
       id="path46"
       style="stroke-width:0.47038752" />
    <path
       inkscape:connector-curvature="0"
       d="m 10.510643,284.68964 c -0.28224,0 -0.47039,0.18792 -0.47039,0.47061 v 0.79908 c 0,0.28269 0.188158,0.47062 0.47039,0.47062 0.282232,0 0.470389,-0.18793 0.470389,-0.47062 v -0.79908 c 0,-0.28269 -0.235195,-0.47061 -0.470389,-0.47061 z"
       id="path48"
       style="stroke-width:0.47038752" />
    <path
       inkscape:connector-curvature="0"
       d="m 12.768502,284.68964 c -0.282232,0 -0.470389,0.18792 -0.470389,0.47061 v 0.79908 c 0,0.28269 0.188149,0.47062 0.470389,0.47062 0.282241,0 0.47039,-0.18793 0.47039,-0.47062 v -0.79908 c 0,-0.28269 -0.235195,-0.47061 -0.47039,-0.47061 z"
       id="path50"
       style="stroke-width:0.47038752" />
    <path
       inkscape:connector-curvature="0"
       d="m 8.2527825,287.93543 c -0.2822368,0 -0.4703894,0.18793 -0.4703894,0.47062 v 0.79988 c 0,0.28269 0.1881534,0.47061 0.4703894,0.47061 0.28224,0 0.4703894,-0.18792 0.4703894,-0.47061 v -0.79988 c 0,-0.23531 -0.1881574,-0.47062 -0.4703894,-0.47062 z"
       id="path52"
       style="stroke-width:0.47038752" />
    <path
       inkscape:connector-curvature="0"
       d="m 10.510643,287.93543 c -0.28224,0 -0.47039,0.18793 -0.47039,0.47062 v 0.79988 c 0,0.28269 0.188158,0.47061 0.47039,0.47061 0.282232,0 0.470389,-0.18792 0.470389,-0.47061 v -0.79988 c 0,-0.23531 -0.235195,-0.47062 -0.470389,-0.47062 z"
       id="path54"
       style="stroke-width:0.47038752" />
    <path
       inkscape:connector-curvature="0"
       d="m 12.768502,287.93543 c -0.282232,0 -0.470389,0.18793 -0.470389,0.47062 v 0.79988 c 0,0.28269 0.188149,0.47061 0.470389,0.47061 0.282241,0 0.47039,-0.18792 0.47039,-0.47061 v -0.79988 c 0,-0.23531 -0.235195,-0.47062 -0.47039,-0.47062 z"
       id="path56"
       style="stroke-width:0.47038752" />
    <path
       inkscape:connector-curvature="0"
       d="m 8.2527825,291.22804 c -0.2822368,0 -0.4703894,0.18793 -0.4703894,0.47062 v 0.79908 c 0,0.28269 0.1881534,0.47061 0.4703894,0.47061 0.28224,0 0.4703894,-0.18792 0.4703894,-0.47061 v -0.79908 c 0,-0.28269 -0.1881574,-0.47062 -0.4703894,-0.47062 z"
       id="path58"
       style="stroke-width:0.47038752" />
    <path
       inkscape:connector-curvature="0"
       d="m 10.510643,291.22804 c -0.28224,0 -0.47039,0.18793 -0.47039,0.47062 v 0.79908 c 0,0.28269 0.188158,0.47061 0.47039,0.47061 0.282232,0 0.470389,-0.18792 0.470389,-0.47061 v -0.79908 c 0,-0.28269 -0.235195,-0.47062 -0.470389,-0.47062 z"
       id="path60"
       style="stroke-width:0.47038752" />
    <path
       inkscape:connector-curvature="0"
       d="m 12.768502,291.22804 c -0.282232,0 -0.470389,0.18793 -0.470389,0.47062 v 0.79908 c 0,0.28269 0.188149,0.47061 0.470389,0.47061 0.282241,0 0.47039,-0.18792 0.47039,-0.47061 v -0.79908 c 0,-0.28269 -0.235195,-0.47062 -0.47039,-0.47062 z"
       id="path62"
       style="stroke-width:0.47038752" />
    <path
       inkscape:connector-curvature="0"
       d="m 31.960319,296.82578 c 0.28224,0 0.470374,-0.18792 0.470374,-0.47061 0,-0.28269 -0.18815,-0.47061 -0.470374,-0.47061 h -1.411163 v -19.28587 c 0,-0.18793 -0.09408,-0.32927 -0.282232,-0.42243 l -9.878147,-4.46875 v -7.7143 c 0,-0.28269 -0.188149,-0.47061 -0.470389,-0.47061 h -9.078481 c -0.28224,0 -0.470389,0.18792 -0.470389,0.47061 V 275.3767 H 5.4774944 c -0.2822369,0 -0.4703894,0.18792 -0.4703894,0.47061 V 295.9329 H 3.2666714 c -0.2822368,0 -0.4703894,0.18793 -0.4703894,0.47062 0,0.28269 0.1881534,0.47061 0.4703894,0.47061 H 31.960319 Z m -2.351943,-19.89742 v 19.00358 H 20.529899 V 272.78896 Z M 11.310299,264.46294 h 8.137708 v 31.42194 h -3.48087 v -2.96343 h 1.92859 c 0.28224,0 0.47039,-0.18792 0.47039,-0.47061 0,-0.28269 -0.18815,-0.47062 -0.47039,-0.47062 h -1.92859 v -2.72827 h 1.92859 c 0.28224,0 0.47039,-0.18793 0.47039,-0.47062 0,-0.28269 -0.18815,-0.47061 -0.47039,-0.47061 h -1.92859 v -2.72828 h 1.92859 c 0.28224,0 0.47039,-0.18792 0.47039,-0.47061 0,-0.28269 -0.18815,-0.47062 -0.47039,-0.47062 h -1.92859 v -2.72812 h 1.92859 c 0.28224,0 0.47039,-0.18792 0.47039,-0.47061 0,-0.28269 -0.18815,-0.47061 -0.47039,-0.47061 h -1.92859 v -2.6813 h 1.92859 c 0.28224,0 0.47039,-0.18792 0.47039,-0.47061 0,-0.28269 -0.18815,-0.47062 -0.47039,-0.47062 h -1.92859 v -1.55238 c 0,-0.28269 -0.188157,-0.47062 -0.470389,-0.47062 h -4.186451 z m -5.3624178,11.8068 h 9.0784818 v 19.61514 H 5.9478812 Z"
       id="path64"
       style="stroke-width:0.47038752" />
    <path
       inkscape:connector-curvature="0"
       d="m 12.768502,267.33241 h 5.174263 c 0.282232,0 0.47039,-0.18793 0.47039,-0.47062 0,-0.28269 -0.18815,-0.47061 -0.47039,-0.47061 h -5.174263 c -0.282232,0 -0.470389,0.18792 -0.470389,0.47061 0,0.28269 0.188149,0.47062 0.470389,0.47062 z"
       id="path66"
       style="stroke-width:0.47038752" />
    <path
       inkscape:connector-curvature="0"
       d="m 12.768502,270.95445 h 5.174263 c 0.282232,0 0.47039,-0.18793 0.47039,-0.47062 0,-0.28268 -0.18815,-0.47061 -0.47039,-0.47061 h -5.174263 c -0.282232,0 -0.470389,0.18793 -0.470389,0.47061 0,0.28269 0.188149,0.47062 0.470389,0.47062 z"
       id="path68"
       style="stroke-width:0.47038752" />
    <path
       inkscape:connector-curvature="0"
       d="m 18.366114,274.15302 c 0,-0.28269 -0.188149,-0.47061 -0.470389,-0.47061 H 12.72146 c -0.28224,0 -0.47039,0.18792 -0.47039,0.47061 0,0.28269 0.18815,0.47061 0.47039,0.47061 h 5.174265 c 0.28224,0 0.470389,-0.18792 0.470389,-0.47061 z"
       id="path70"
       style="stroke-width:0.47038752" />
  </g>
</svg>
